<svg width="32" height="26" viewBox="0 0 32 26" xmlns="http://www.w3.org/2000/svg">
<path d="M32 3.078c-1.176.522-2.442.875-3.77 1.034 1.355-.813 2.396-2.1 2.887-3.632-1.27.752-2.674 1.3-4.17 1.593C25.75.797 24.045 0 22.158 0 18.53 0 15.59 2.94 15.59 6.565c0 .515.06 1.016.17 1.496C10.306 7.788 5.468 5.174 2.23 1.2c-.566.97-.89 2.098-.89 3.302 0 2.278 1.16 4.287 2.92 5.465-1.075-.034-2.087-.33-2.973-.82v.082c0 3.18 2.262 5.833 5.265 6.436-.55.15-1.13.23-1.73.23-.423 0-.834-.04-1.235-.118.835 2.608 3.26 4.506 6.133 4.56-2.247 1.76-5.078 2.81-8.154 2.81-.53 0-1.052-.032-1.566-.093 2.905 1.863 6.356 2.95 10.064 2.95 12.076 0 18.68-10.004 18.68-18.68 0-.285-.007-.568-.02-.85C30.007 5.55 31.12 4.396 32 3.08z" fill="#55acee" fill-rule="evenodd"/>
</svg>