<svg enable-background="new 0 0 1451.5 657.5" viewBox="0 0 1451.5 657.5" xmlns="http://www.w3.org/2000/svg"><g opacity=".125"><g fill="#ccc"><path d="m0 324c57-7.3 110.4 1.2 159.8 27.3 103.8 53.7 168.7 93.5 235.2 94.8 51.3 1 102.2-21 161.9-76.7 26.7-25 49.7-51.3 69.8-72 18-18.5 34.1-33.1 48.8-38.5 13.4-5 27.6-7.6 41.9-7.7-.4 2.4-.8 4.6-1.2 7-9.9-.3-21.6-.3-35 3.9-15.2 4.7-32.8 14.9-52.6 36.3-21.9 23.6-52.1 55.4-87.5 82.4-43.6 33.3-98.5 61.8-157.9 59.7-49.4-2.4-114.2-48.4-197.8-79.9-51.5-19.4-112.3-34-185.4-29.8v-6.8z"/><path d="m0 355.4c61.7-8.3 116.6-4.8 164.2 12.3 112.4 40 176.3 80.9 240.8 83.2 50.4 1.8 100.2-19.9 161.2-82.2 31.8-32.6 59-64.1 81.1-90.5 16.1-19.4 30.4-31.4 43.2-38.7 11.3-6.4 21.3-9 30.3-9.4.4-2.4.8-4.6 1.2-7-7.8-2.8-17.1-4.1-28.1 1-26.1 11.6-61.6 67.5-104.9 118.7-27.6 32.6-59.4 64.9-97.7 86-41.4 22.9-91.1 32.7-151.9 15-46.7-14.7-100-57-173.7-84-44.2-16.3-97.5-27.6-165.7-24.2z"/><path d="m0 354c66.2-20.8 127-22.5 180.9-1.5 112.6 44.5 190.1 82.4 257.7 79.1 51.5-2.5 98.9-28.2 148.7-93.3 25.1-32.8 47.6-66.1 68.3-90.1 18.1-20.9 34.5-34.2 49.5-32.6 6.4.2 12.3.5 17.7 1-.6 3.7-1.2 7.4-1.8 11.1-8.2-1.4-16.6-.7-24.4 1.9-10 3.2-21.4 9.9-34.3 22.1-16.2 15.3-35.4 36.8-57.4 59.5-25.4 26.3-55.4 55.1-90.2 80.8-59.5 43.3-107.3 49.2-155.9 37.9-61.4-14.4-123.5-55.6-231.2-84-39.6-10.2-82.4-9.3-127.6 1v7.1z"/><path d="m0 289.9c53.1 2.1 102.2 14.3 146.9 37.7 55.5 28.9 100.7 58.7 141.6 82.5 38.4 22.4 73.1 39.8 107.8 45.5 54.1 9 107.6-10.3 169.6-79.6 38.6-43.4 71-85.7 98.4-115.7 23-25.2 42.4-41.6 58.3-41.8-1.5 9.1-2.9 18.3-4.3 27.4-12 3-25.9 8.6-42.3 19.2-18.9 12.3-41.6 31.7-68.8 62.1-30.1 33.8-64.2 67.7-102.4 91-47.2 28.8-102.9 43.1-170.4 21.7-34.9-11.8-67.2-38.8-106.4-66.8-41.6-29.7-92.1-61.1-167.3-79.2-19.9-4.9-40.3-7.9-60.8-8.9v4.9z"/><path d="m0 273.4c56.6 9.5 108.3 30.1 154.9 62.9 52.5 38.7 100.7 68.5 146 87.8 42.1 18 81.7 26.8 119.8 24.3 58-3.8 112.9-33.3 166.8-94.2 27.2-30.7 48.3-54.2 67.1-71.2 16.6-15 31.5-25.1 46.5-30.1 5.5-1.9 11.2-3.4 16.9-4.6.9-5.9 1.8-11.9 2.8-17.7-2.3-.6-4.8-1.2-7.4-2-21.5-6.5-37 5.2-53.6 27-18.8 24.4-38.6 60.7-78.5 105.4-28.4 32.1-61.6 58.8-97.4 75.9-43.7 20.9-92.9 28.2-144.9 13.8-38.5-11.4-91.3-60.9-165.2-104.2-46.1-27-102.7-52.6-173.8-66.3z"/><path d="m0 509.9v-4.5c79.5-55.9 169.7-87.2 268-83.6 105.4 4.7 169.7-2 222.7-23.6 42.1-17.2 78.9-44.5 117.3-82.8 28.3-28.3 50.3-46 68.6-56.8 15.9-9.3 29.4-13.6 42-14.8l-.3 1.2c-14.6.6-29 4.2-42.2 10.7-29.6 13.9-61.3 51.1-99.5 85.1-23.8 21.1-50.8 41.7-85.1 57.4-36.5 16.8-82.5 28-143.1 27.1-50-1.4-104.1-14-165.1-5.6-53.1 7.2-112.5 30-183.3 90.2z"/><path d="m0 264.6c14.1 1.3 28 3.1 41.9 5.5 89.8 14.7 148.5 53.5 193.9 91.5 42.7 35.8 75 71.9 106.5 85.8 47.1 20 88.2 20.5 127.1 3.8 32.6-14 63.9-40.6 94.7-78.5 24.5-29.9 45.8-56 65.1-78.8 17.2-20.3 32.8-38.1 47.1-53.3 13.4-13.6 33.3-.6 42.3 3.7 1.2-7.1 2.3-14.3 3.4-21.4-17-1.9-34.8 8.1-55 27.7-23.9 23.1-51.5 59.1-88.1 106.2-29.2 37.4-58.5 65.2-89.6 81.4-36.8 19-77.4 22.4-127.4 7-36.9-11.8-94.6-63.4-174.3-106.2-50.8-27.3-112.6-52.2-187.6-62.2z"/><path d="m0 328.1c10.1-.7 20-1 29.9-1 67.4.3 130 18.1 187.4 54.3 80.5 50.5 139.5 83.3 199.8 79.3 47.4-3.2 95-29 148.7-85.4 29-30.7 52.8-59 73.8-82.7 18.4-20.8 35-38.2 50.6-49.3 12.1-8.6 22-12.2 30.5-13.3.1-.3.1-.5.2-.7-4.5-.8-9.1-1.2-13.7-1.1-25.4 0-61.8 58.9-105.7 116.8-28.1 37-60.6 75.2-99 100.6-42 27.8-91.9 41.2-152.4 21.7-65.4-22-110.3-74.9-196.6-124.5-44.7-25.7-96-36.4-153.5-33.2z"/><path d="m0 254.1c76.1 9 143.2 37.3 200.6 87 87.3 74.3 149.9 124.2 217.1 121.3 51.5-2.2 104.3-35.1 165.4-109.1 27-32.9 49.7-63.2 70.1-84.9 17.8-18.9 33.9-31.2 48.8-31.9 5.8-.3 11.7-.2 17.5.3 1.3-7.5 2.5-15.1 3.6-22.7-2.2-.3-4.4-.4-6.8-.4-23.2-.9-43.3 23.7-65.9 57.4-26.2 39.2-55.8 90.5-108.8 142-61.3 59.6-116.2 68.8-168.6 49.7-33.1-12.1-64.9-35.5-96.8-63.3-33.4-29.1-66.8-62.8-102.6-93.9-48.6-43-106.9-68.9-173.6-79.6z"/></g><path d="m0 273.5c61.8 9.5 114.6 28 159.5 48.3 77.3 34.8 136.1 76.8 176.8 89.2 79.1 22.9 137.6 10 186.3-17.5 38.5-21.8 72.9-53.8 104.3-85.5 20.7-20.8 38.6-34 54.1-42.7 11.3-6.4 23.5-11 36.3-13.8-.2.9-.3 1.9-.5 2.8-8.3-1.9-18.4-3.8-29.6-2.1-12.6 1.9-26.6 8.7-40.8 25.3-30.2 35.6-69.3 86.2-114.8 124.3-28.7 24-61.4 44.1-97.5 52.8-38.8 9.4-82.4 6-130-19.7-31.1-17.4-58.6-52.6-94.1-88.5-37.2-37.6-84.3-76.8-158.9-100.1-16.8-5.3-33.8-9.8-51.1-13.3z" fill="#808080"/><path d="m725 203.1c-6.4 12.1-12.9 25.6-19.3 41-10.7 26.1-20.8 63-33.8 95.3-14.1 34.9-32.9 67-66.2 83.3-36.3 17.5-72.8 15.4-110.8-1.3-48.7-21.4-99.1-67-154.1-123.9-23.3-24.9-80.7-94.2-156.4-138.8-52.3-30.7-115.4-51.1-184.4-36.7v4.2c69.8-12.4 135.1 9.1 189 40.1 77.9 44.8 137.3 112.3 157.8 134.2 53.8 55.5 100.3 99.3 146.6 120.1 36.6 16.5 72.3 18.6 109.3 2.1 28.3-13.2 45.2-35.9 57.8-62 11.7-24.1 20.8-52.8 30.1-78.3 5.7-15.4 11.5-29.6 17.3-42.8 5.5-12.6 11.2-24 16.7-34.1.2-.7.2-1.6.4-2.4z" fill="#ccc"/><path d="m726.2 195.5c-5.1 11.8-10 24.7-14.4 38.6-4.6 14.2-8.6 29-12.1 44-4.5 19.9-9.4 37.7-16.5 53.1-7.5 16.9-19 31.7-33.3 43.3-29.9 24.3-61.8 30.3-95.5 23.3-43.8-9-90.9-40.2-138.4-82-24.3-22-57.6-55.6-102.2-90.4-59.2-46.2-125.2-82.9-195.8-108.6-20.8-7.6-117.4-44-114.7-14.8 97.5-10.1 194.5 39 266.3 89.8 65 45.9 113.2 95.6 128.3 108.7 54.5 46.6 102.7 78.6 146.6 91.2 34.1 9.8 66.1 8 96.3-7.2 28.2-14.7 41.6-39.1 50.8-67 8.7-26.5 14.7-58.3 23.1-84.6 3.4-10.2 6.6-19.3 10-27.7.5-3.4 1.1-6.6 1.5-9.7z" fill="#ccc"/><path d="m721.9 222.3c-3.5 9.5-7 19.8-10 30.9-5.5 19.7-10.5 42.7-17.5 63.2-7.3 21.5-17.3 41.6-34.5 56.6-27.1 23.3-57.4 31.1-90 27.1-42.1-5.2-88.6-30.4-133.6-67-16-13.3-32.7-28.1-51.2-44-17.6-15-69.7-68.9-133.3-104.5-70.5-39.6-158.2-58.9-225.8 22 .2.9 6.4-4.3 7.7-5 68.8-66.4 146.4-52.4 208.5-20.1 56.8 29.5 103.5 75.4 123.8 92.2 60.7 49 105.8 84.4 147.8 103 33.6 14.9 65.3 19.1 98.8 10.3 18.9-5.4 41.6-17.2 58.8-34.6 15.1-15.3 27.1-36.1 31.4-65.4 1.9-11.6 3-23.1 4.7-34.7 1.9-12.8 4.8-25.4 8.6-37.7 3.2-10.4 7.2-20.6 11.9-30.5-1.9 12.7-4 25.5-6.1 38.2z" fill="#ccc"/><path d="m718.9 241.4c-3.6 4.6-7.3 9.5-11 14.8-15.7 21.7-29.7 55.9-46.1 86.8-18.3 34.5-40.5 66.6-78.5 82.4-53.8 23.6-101.1 11.9-150-22.2-31.8-22.1-64.6-53.8-102.6-90.9-40.4-39.5-88.1-85.9-149.4-137.3-44-36.8-111.1-65.4-181.4-71.1v-.3c87.5-3.1 160 34.6 216.4 80.5 81.2 66.1 137 154.9 157.4 174.7 40 37.7 79.5 65.2 118 78 31.8 10.5 63 11 93.8 0 34-12.7 52.9-38.5 67-68.4 13.1-27.7 23.2-60.9 34.7-88.4 4.8-11.4 9.1-22.8 13.6-33.7 7.8-18.7 16-32.9 24.1-43.6-1.9 12.8-4 25.7-6 38.7z" fill="#ccc"/><path d="m725.1 202.4c-11.6 9.2-24.7 25.1-36.8 47.8-14.5 27.4-24.8 70.2-38.5 106.4-14.7 39-34.6 74-78.9 90.9-39.1 14.4-78.1 11.4-117-6-49.5-22.1-97.7-67.1-146.9-126-19.6-24.3-62.5-93-129.8-149.5-44.8-37.6-102.8-71.9-177.2-86.2v7.7c90.5 20.9 164.5 71.2 221.4 123.1 79.4 72.4 133 154.1 152.2 171.7 33.7 29.8 68.4 51.3 103.1 61.7 29.3 8.8 58.1 9.7 86.1 1.3 36.2-11.5 57-38.9 72.9-70.4 14.7-28.9 26.4-63.3 38.9-90 3.9-7.6 7.8-15.1 11.5-22.4 12.9-24.6 25.7-40.3 37.6-51.1.4-3.1 1-6 1.4-9z" fill="#ccc"/><path d="m711.8 285.8c-17.5 17.5-37.5 29.9-59.7 35.9-27.2 7.4-58.9 5.6-94.4-8.4-24.8-10.5-52.4-27.6-86.4-45.8-41.6-22.2-95.3-47.3-173.4-67 1.5-1.6 5.9 1.5 7.4 1.8 76 16.9 128.4 42.5 169.2 65.3 33.3 18.6 60.3 36.6 84.4 46.5 33.7 12.6 65.9 14.4 93.6 7.3 22.4-5.7 42.4-17.5 59.2-34.8 0-.1 0-.4.1-.8z" fill="#ccc"/><path d="m726.8 192.4c-9.5 10.5-19.4 25.1-29.7 45.7-9 18.5-15.7 38.2-21.6 58.8-6.1 21.1-11.4 42.6-18.4 65.7-10.6 36.2-33.1 63.7-58.5 78.2-50.6 28-96 19.7-142.6-11.7-30.6-20.7-61.6-51-95.8-87.3-36-38.1-76.3-83-124.8-131-28.1-28.4-78.5-68.9-142.9-96-29.8-12.6-60.8-21.3-92.5-26v5.7c53.6 11 102 27.3 128.1 42 66.9 33.6 111 74.1 144.3 112.1 31.9 36.4 55.2 71.9 77 97.2 46.3 51.1 106.1 96.1 161.9 107.7 41.8 8.7 81.4-1.1 115.9-38.1 14.8-16.1 25.1-35.8 33.1-55.7 7.6-19.1 13.5-39 19.1-56 5.7-17.3 12.8-34.1 21.2-50.3 6.4-12.3 13.7-24 21.9-35.1 1.5-8.6 2.9-17.3 4.3-25.9z" fill="#ccc"/><path d="m723.4 213.2c-8.8 8.5-18.5 20.4-29.2 37.1-9.3 14.7-18.2 31.2-27.4 49.1-9.6 18.8-19.5 39.1-30.7 61.1-46.4 91.6-97.5 124.1-151.9 120-37.5-2.8-77.2-23.5-115.8-54.8-41.1-33.3-80.9-77.9-114.2-124.9-15.4-22.1-52.9-82.2-112.1-148.7-42.7-48.1-90.3-91.8-142.1-130.1v19c54.7 43 97.8 81.9 133.3 117.6 44 44.2 77.9 84.8 107.4 121.1 49.3 60.6 89.3 112 135.1 144.4 38.5 25.8 93.7 46.8 141.7 38.9 37.8-6.3 72.4-30 99.3-85.2 18.9-34.6 29.8-70.5 44.5-101 11.6-23.7 23.2-40.6 34.6-52.6 10.3-10.9 20.2-17.7 29.2-21.8-.6 3.5-1.1 7.2-1.7 10.8z" fill="#808080"/><path d="m723.8 210.4c-13 3.7-26.7 15.9-40.8 35.3-15.7 21.6-31.6 51.3-47.6 86.4-20.1 44.6-45.3 87.4-75.2 118-35.5 36.4-81 59.2-138.2 46.3-31-7.7-59.8-23.6-87.2-46.3-31.1-25.8-59.8-60.2-88.1-101.1-14.7-23-45.3-82.5-94-150.2-32.7-45.7-70.2-88-111.6-126.3-12.8-11.9-26.5-23.8-41.1-35.6v1.5c55.5 44.9 97.2 86.1 130.6 124.4 39.5 45.5 68.4 88.5 93.4 127.8 42.5 66.7 76.1 125.9 122.1 161.3 37.7 27.5 83.6 49.2 129.6 43.4 37.2-4.7 74.1-27.3 109.3-78.4 33.8-49.1 58.2-99.4 81-138.7 19.8-34.2 38.1-59.3 56.8-62.1.4-1.9.7-3.8 1-5.7z" fill="#ccc"/><path d="m725.2 202.5c-8.9 9.6-17.3 23.6-27 45.5-8.1 18.3-15.4 39-23.2 60-8.2 22.2-16.9 45-27.8 67.9-25.5 53.7-59.4 76.9-97.1 83-49.7 8-108.6-13.7-147.8-42.1-32.1-24-59.2-59.9-90.1-100.7-35.5-46.9-77.4-101-146.1-158.4-44.6-37-101-64.7-166.1-77v.1c93.6 20.5 165.1 71.9 217.3 123.4 57.5 56.6 95.7 116.9 113.5 137.9 25.4 29.9 60.9 61 98.2 84.7 35 22.2 71.6 37.7 103.9 39.3 47.1 2.3 88.5-23.4 120-101.9 2-5.2 4-10.4 5.8-15.5 12.6-34.4 23.7-65.1 35-91.6 10.5-24.7 20.9-45.2 32.3-59.8-.3 1.7-.6 3.5-.8 5.2z" fill="#ccc"/><path d="m1451.5 262.3c-96 39.5-184.3 42.1-262.3 1-103.8-53.8-168.8-93.6-235.2-94.9-51.3-1-102.3 21-161.9 76.7-26.7 25-49.7 51.3-69.8 72-18 18.6-34.1 33.1-48.9 38.5-13.4 5-27.6 7.6-41.9 7.7.4-2.4.8-4.6 1.2-7 9.9.3 21.6.3 35-3.9 15.2-4.7 32.8-14.9 52.6-36.3 21.9-23.6 52.1-55.4 87.5-82.4 43.6-33.2 98.5-61.7 157.9-59.7 49.4 2.4 114.2 48.4 197.8 79.9 73.9 27.8 166.9 45.8 288 12.8z" fill="#ccc"/><path d="m1451.5 236.3c-104.7 31-194.2 36.5-266.7 10.4-112.4-40-176.3-80.9-240.8-83.2-50.4-1.8-100.2 19.9-161.2 82.2-31.8 32.6-59 64.1-81.1 90.5-16.1 19.4-30.4 31.4-43.2 38.6-11.3 6.4-21.3 9-30.3 9.5-.4 2.3-.8 4.6-1.2 7 7.8 2.8 17.1 4.1 28.1-1 26.1-11.6 61.6-67.4 104.9-118.6 27.6-32.6 59.4-64.9 97.7-86 41.5-22.9 91.2-32.7 151.9-15 46.7 14.7 100 57 173.7 84 64.1 23.5 147.6 36.7 268.2 9.5z" fill="#808080"/><path d="m1451.5 317.3c-93.4 16-177.2 7.4-249.5-30.4-55.5-28.9-100.7-58.7-141.6-82.5-38.4-22.4-73.1-39.8-107.8-45.6-54.1-9-107.6 10.3-169.5 79.6-38.6 43.4-71 85.7-98.4 115.7-23 25.2-42.4 41.6-58.3 41.8 1.5-9.1 2.9-18.3 4.3-27.4 12-3 25.9-8.6 42.3-19.2 18.9-12.3 41.6-31.7 68.8-62.1 30.2-33.8 64.2-67.7 102.4-91 47.2-28.8 102.8-43.1 170.4-21.7 34.9 11.8 67.2 38.8 106.4 66.8 41.6 29.7 92.1 61.1 167.3 79.2 49.8 12.3 104.8 12.4 163.3 1.8z" fill="#ccc"/><path d="m1451.5 346.6c-97.8 4.8-184.1-16.8-257.4-68.4-52.5-38.7-100.7-68.5-146-87.8-42.1-18-81.7-26.8-119.8-24.3-58 3.8-112.8 33.3-166.8 94.2-27.2 30.7-48.3 54.2-67.1 71.2-16.6 15-31.5 25.2-46.4 30.1-5.5 1.8-11.2 3.4-16.9 4.6-.9 5.9-1.8 11.9-2.8 17.8 2.3.6 4.8 1.2 7.4 2 21.5 6.5 37-5.2 53.6-27 18.6-24.4 38.3-60.7 78.3-105.4 28.4-32.1 61.6-58.8 97.4-75.9 43.7-20.9 92.9-28.2 144.9-13.7 38.5 11.4 91.3 60.9 165.2 104.2 66.4 38.9 154.3 74.9 276.3 76.5z" fill="#ccc"/><path d="m1451.5 0v17.4c-11.8 13-23.9 25.4-36.6 37.4-94.3 89.2-207.4 142.5-334 137.8-105.4-4.7-169.8 2-222.7 23.6-42.1 17.2-78.9 44.5-117.2 82.8-28.3 28.2-50.3 46-68.6 56.7-15.9 9.3-29.4 13.6-42 14.8.1-.4.2-.8.3-1.2 14.6-.6 29-4.3 42.2-10.7 29.5-13.9 61.3-51.2 99.5-85.2 23.8-21.1 50.8-41.7 85.1-57.3 36.5-16.6 82.5-27.8 143.2-26.9 50 1.4 104.1 13.9 165.1 5.6 68.3-9.3 147.1-44.4 247.2-151.9 13.3-14.2 26.1-28.5 38.5-42.9z" fill="#ccc"/><path d="m1451.5 350.3c-48.2 4.1-96.7 2.1-144.5-5.9-89.8-14.7-148.5-53.5-193.9-91.5-42.7-35.8-75-71.9-106.5-85.8-47.1-19.9-88.2-20.6-127.1-3.8-32.6 14-63.9 40.6-94.7 78.6-24.5 29.9-45.8 56-65 78.8-17.1 20.4-32.8 38.1-47 53.4-13.4 13.7-33.3.6-42.3-3.7-1.2 7.1-2.3 14.3-3.4 21.4 16.8 1.8 34.6-8.2 54.9-27.8 23.9-23.1 51.5-59.1 88.1-106.2 29.2-37.4 58.5-65.2 89.7-81.4 36.7-19 77.4-22.4 127.4-7 36.9 11.8 94.6 63.4 174.3 106.2 72.1 38.7 166.7 72.7 289.9 65.8z" fill="#ccc"/><path d="m1451.5 268.2c-46.3 12.9-90.5 19.3-132.4 19.2-67.4-.3-130-18-187.4-54.3-80.5-50.5-139.5-83.3-199.8-79.2-47.4 3.2-95 29-148.7 85.4-29 30.7-52.8 59-73.8 82.7-18.4 20.8-35 38.2-50.6 49.3-12.1 8.6-22 12.3-30.5 13.3-.1.3-.1.5-.2.7 4.5.8 9.1 1.2 13.7 1.1 25.4 0 61.7-59 105.7-116.8 28.1-37 60.6-75.2 99-100.6 42-27.8 91.9-41.2 152.5-21.7 65.4 22 110.3 74.9 196.6 124.5 69.5 40.1 155.7 43.7 255.9 14.7z" fill="#ccc"/><path d="m1451.5 361.6c-119.3 10-221.2-17.3-303.2-88.3-87.3-74.3-149.9-124.2-217.1-121.3-51.6 2.2-104.4 35.1-165.4 109.1-27 32.9-49.6 63.2-70.1 84.9-17.8 19-33.9 31.3-48.8 32-5.8.3-11.7.2-17.5-.3-1.2 7.5-2.5 15.1-3.6 22.7 2.2.3 4.4.4 6.8.5 23.2.9 43.3-23.7 65.9-57.4 26.2-39.1 55.8-90.4 108.8-142 61.3-59.6 116.2-68.8 168.6-49.7 33.1 12.1 64.9 35.5 96.8 63.3 33.4 29.1 66.8 62.8 102.6 94 72.3 63.6 165.6 89.9 276.3 84.5z" fill="#ccc"/><path d="m1451.5 347.5c-108 2.5-194-24.2-262-54.8-77.3-34.8-136.1-76.8-176.8-89.2-79.1-22.9-137.6-10-186.3 17.4-38.5 21.8-72.9 53.8-104.3 85.5-20.7 20.8-38.6 34.1-54.1 42.7-11.3 6.4-23.6 11-36.3 13.8.2-.9.3-1.9.5-2.8 8.3 1.9 18.4 3.8 29.6 2.1 12.7-1.9 26.6-8.7 40.8-25.3 30.2-35.6 69.3-86.3 114.8-124.3 28.7-24 61.4-44.1 97.5-52.8 38.8-9.4 82.4-6 130 19.7 31.2 17.4 58.7 52.6 94.1 88.5 37.2 37.6 84.3 76.8 158.9 100.1 49 15.6 100.9 23.5 153.7 23.8z" fill="#ccc"/><path d="m624 411.4c6.4-12.1 12.9-25.6 19.2-41 10.7-26.1 20.8-63 33.8-95.3 14.1-34.9 32.9-67 66.2-83.3 36.3-17.5 72.8-15.4 110.8 1.3 48.7 21.4 99.1 67 154.1 123.8 23.3 24.9 80.7 94.2 156.4 138.8 77.3 45.6 178.4 68.5 287-10.6v-.8c-107.1 74.9-211.8 49.7-291.6 3.9-77.9-44.8-137.3-112.3-157.8-134.2-53.8-55.5-100.3-99.3-146.6-120.1-36.6-16.5-72.2-18.6-109.3-2.1-28.3 13.2-45.2 36-57.8 62-11.7 24.1-20.8 52.8-30.1 78.3-5.7 15.4-11.5 29.6-17.3 42.8-5.5 12.6-11.2 24-16.7 34.1-.1.7-.2 1.5-.3 2.4z" fill="#808080"/><path d="m622.7 418.9c5.1-11.8 9.9-24.7 14.4-38.6 4.6-14.2 8.6-29 12.1-44 4.5-19.9 9.4-37.7 16.5-53.1 7.5-16.9 19-31.7 33.3-43.3 29.9-24.2 61.8-30.3 95.5-23.3 43.8 9 90.9 40.2 138.4 82.1 24.3 22 57.6 55.6 102.2 90.4 59.1 46.2 125.2 82.9 195.7 108.6 20.8 7.6 117.4 44 114.7 14.8-97.5 10.1-194.5-39-266.3-89.8-65-45.9-113.2-95.5-128.3-108.7-54.5-46.5-102.7-78.6-146.6-91.2-34.1-9.8-66.1-8-96.3 7.2-28.2 14.7-41.6 39.1-50.8 67-8.7 26.5-14.7 58.2-23 84.6-3.4 10.2-6.6 19.3-10 27.7-.5 3.3-1 6.5-1.5 9.6z" fill="#ccc"/><path d="m627 392.1c3.5-9.5 7-19.8 10-30.9 5.5-19.7 10.5-42.7 17.5-63.2 7.3-21.5 17.3-41.7 34.5-56.6 27.1-23.3 57.4-31.1 90-27.1 42.1 5.2 88.6 30.4 133.6 67 16 13.3 32.7 28.1 51.3 44 17.6 15 69.7 68.9 133.3 104.5 70.5 39.5 158.2 58.9 225.8-22-.2-.9-6.4 4.3-7.7 5-68.8 66.4-146.4 52.5-208.5 20.1-56.9-29.6-103.5-75.5-123.8-92.3-60.7-49-105.8-84.4-147.8-103-33.6-14.9-65.3-19.1-98.8-10.3-18.9 5.4-41.6 17.2-58.8 34.6-15.1 15.3-27 36.1-31.4 65.4-1.9 11.6-3 23.1-4.7 34.7-1.9 12.8-4.8 25.5-8.6 37.8-3.2 10.4-7.2 20.6-11.9 30.5 1.9-12.6 3.9-25.4 6-38.2z" fill="#ccc"/><path d="m630 373.1c3.6-4.6 7.3-9.5 11-14.9 15.7-21.7 29.7-55.9 46.1-86.8 18.3-34.5 40.5-66.6 78.5-82.4 53.8-23.6 101.1-11.9 150.1 22.2 31.8 22.1 64.6 53.8 102.7 91 40.4 39.5 88.1 85.9 149.3 137.3 65.4 54.7 181.6 91.2 283.9 61.5v-11.9c-134.6 51.5-241.8 3.9-318.9-58.8-81.2-66.1-137-154.9-157.4-174.7-40-37.7-79.5-65.2-118-78-31.8-10.6-63-11.1-93.8 0-34 12.7-52.9 38.5-67 68.4-13.1 27.7-23.2 60.9-34.7 88.4-4.8 11.4-9.1 22.8-13.6 33.7-7.8 18.7-16.1 32.9-24.1 43.6 1.8-12.8 3.9-25.7 5.9-38.6z" fill="#ccc"/><path d="m623.8 412c11.6-9.2 24.7-25.1 36.8-47.8 14.4-27.4 24.8-70.2 38.5-106.4 14.7-39 34.6-74 78.9-90.9 39.1-14.4 78.1-11.4 117 6 49.5 22.2 97.7 67 146.9 126 19.5 24.3 62.4 92.9 129.7 149.4 63.7 53.4 153.9 100.1 279.8 92.5v-4c-138.3 4.8-246.9-62.6-324-133-79.4-72.4-133-154.1-152.2-171.7-33.6-29.7-68.4-51.3-103.1-61.7-29.3-8.8-58-9.7-86.1-1.3-36.2 11.5-57 38.9-72.9 70.4-14.7 28.9-26.4 63.3-38.9 90-3.9 7.6-7.8 15.1-11.5 22.4-12.9 24.6-25.7 40.3-37.6 51.1-.3 3.1-.9 6.1-1.3 9z" fill="#ccc"/><path d="m637.2 328.6c17.5-17.5 37.5-29.9 59.7-35.9 27.2-7.4 58.9-5.6 94.4 8.4 24.8 10.5 52.4 27.6 86.4 45.8 41.6 22.2 95.3 47.3 173.4 67-1.5 1.6-5.9-1.5-7.4-1.8-76-16.9-128.5-42.5-169.2-65.3-33.3-18.6-60.3-36.6-84.3-46.5-33.7-12.6-65.9-14.4-93.6-7.3-22.4 5.7-42.4 17.6-59.2 34.8-.1.2-.1.5-.2.8z" fill="#ccc"/><path d="m622.2 422.1c9.5-10.5 19.4-25.1 29.8-45.7 9-18.5 15.7-38.2 21.6-58.8 6.1-21 11.3-42.6 18.4-65.7 10.6-36.2 33.1-63.8 58.5-78.2 50.6-28 96-19.7 142.7 11.7 30.7 20.7 61.7 51.1 95.8 87.3 36 38.1 76.3 83 124.8 131 28.1 28.4 78.5 68.9 142.9 96 54.1 22.7 120.5 36.8 194.8 25.6v7.4c-86.9-2.8-188.2-30.9-230.7-54.8-66.9-33.6-111-74.1-144.3-112.1-31.9-36.4-55.2-71.9-77-97.2-46.3-51.1-106.1-96.1-161.9-107.7-41.8-8.7-81.4 1.1-115.9 38.1-14.8 16.1-25.1 35.8-33.1 55.7-7.6 19.1-13.5 39-19.1 56-5.8 17.3-12.9 34.1-21.2 50.3-6.4 12.3-13.7 24-21.9 35.1-1.5 8.7-2.9 17.4-4.2 26z" fill="#ccc"/><path d="m625.5 401.3c8.8-8.5 18.5-20.4 29.2-37.1 9.3-14.7 18.2-31.2 27.4-49.1 9.6-18.8 19.5-39.1 30.7-61.1 46.4-91.6 97.5-124.1 151.9-120 37.5 2.8 77.3 23.5 115.8 54.8 41.1 33.3 80.9 78 114.2 124.8 15.4 22.2 52.9 82.2 112.1 148.7 56.4 63.4 136.6 136.8 244.7 195.2v-13.5c-24.3-13.9-41.8-24.7-47-28.4-82.3-60.2-142-112.7-188.8-159.6-44-44.2-77.9-84.8-107.4-121.1-49.4-60.7-89.3-112.1-135.1-144.4-38.5-25.8-93.7-46.8-141.7-38.9-37.8 6.3-72.4 30-99.3 85.2-18.9 34.6-29.8 70.5-44.5 101-11.6 23.7-23.2 40.6-34.6 52.6-10.3 10.9-20.2 17.7-29.2 21.8.5-3.7 1-7.3 1.6-10.9z" fill="#808080"/><path d="m625.1 404.1c13-3.7 26.7-15.9 40.8-35.4 15.7-21.6 31.6-51.3 47.6-86.4 20.1-44.6 45.3-87.4 75.2-118 35.5-36.4 81-59.2 138.2-46.3 31 7.8 59.8 23.6 87.2 46.3 31.1 25.8 59.8 60.1 88.1 101.1 14.7 23 45.3 82.5 94 150.2 32.9 45.8 70.4 88.2 111.8 126.5 44 40.7 92.2 76.6 143.7 107.3v-4.8c-28.9-15.5-49.9-27.8-57.6-33.5-78.7-58.8-133.8-111.3-175.6-159.3-39.6-45.5-68.4-88.5-93.5-127.8-42.5-66.7-76.1-125.9-122.1-161.3-37.7-27.6-83.6-49.2-129.6-43.4-37.1 4.7-74.1 27.2-109.3 78.4-33.7 49.1-58.2 99.4-81 138.6-19.8 34.2-38.1 59.3-56.8 62.1-.5 1.8-.8 3.7-1.1 5.7z" fill="#ccc"/><path d="m623.8 411.9c8.9-9.6 17.3-23.6 27-45.5 8.1-18.3 15.4-39 23.2-60 8.2-22.2 16.9-45 27.8-67.9 25.5-53.7 59.4-76.9 97.1-82.9 49.7-8 108.6 13.7 147.8 42.1 32.1 24 59.2 59.9 90.1 100.7 35.5 46.9 77.4 101 146.1 158.4 66.7 55.4 159.7 89.8 268.7 83.3v3.1c-14.9.4-29.7 0-44.6-1.2-122.6-8.5-212.8-70-275.3-131.7-57.4-56.7-95.6-116.9-113.5-137.9-25.4-29.9-60.9-61.1-98.2-84.7-35-22.3-71.5-37.7-103.9-39.3-47.1-2.3-88.6 23.4-120 101.9-2 5.2-4 10.4-5.8 15.5-12.6 34.4-23.7 65.1-35 91.6-10.5 24.7-20.9 45.2-32.3 59.8.2-1.8.6-3.5.8-5.3z" fill="#808080"/></g></svg>